<svg id="svg2" width="737.505" height="897.38" viewBox="0 0 195.131 237.432" xml:space="preserve"
xmlns="http://www.w3.org/2000/svg">
<path style="fill:#000;stroke-width:.264583" d="M55.9 74.517c-1.463.362-4.387 1.085-7.218 2.092-2.83 1.006-5.566 2.295-8.522 4.072-2.956 1.777-6.133 4.041-8.774 6.211-2.642 2.17-4.75 4.246-6.62 6.259a81.714 81.714 0 0 0-4.875 5.739 43.04 43.04 0 0 0-3.758 5.692 81.361 81.361 0 0 0-3.915 8.114c-1.148 2.783-1.966 5.33-2.68 7.89a80.623 80.623 0 0 0-1.795 7.828c-.471 2.698-.805 5.522-1.038 8.09a99.235 99.235 0 0 0-.412 7.217c-.044 2.335 0 4.692.111 7.082.112 2.391.29 4.815.523 7.35.233 2.535.523 5.181.912 7.705s.878 4.926 1.434 7.483c.556 2.557 1.179 5.27 1.901 7.928.723 2.657 1.546 5.259 2.38 7.783.834 2.524 1.679 4.97 2.557 7.272.878 2.301 1.79 4.458 2.88 6.893a153.784 153.784 0 0 0 3.791 7.917c1.435 2.768 3.036 5.592 4.57 8.205 1.535 2.613 3.002 5.015 4.548 7.35 1.545 2.335 3.168 4.603 4.692 6.693 1.523 2.09 2.946 4.003 4.836 6.182 1.89 2.18 4.248 4.626 6.538 6.672 2.29 2.045 4.514 3.691 6.75 5.036 2.234 1.346 4.48 2.39 6.604 3.114a25.04 25.04 0 0 0 6.237 1.29c2.113.166 4.337.1 6.583-.267 2.246-.367 4.514-1.035 7.082-2.002 2.569-.967 5.437-2.235 7.428-3.09 1.99-.857 3.102-1.302 5.192-1.902 2.09-.6 5.16-1.357 8.006-1.78 2.846-.422 5.47-.51 7.927-.477 2.458.033 4.748.189 6.938.545 2.19.355 4.281.911 6.427 1.634 2.146.723 4.347 1.612 6.738 2.624 2.39 1.012 4.97 2.146 7.416 3.013 2.446.867 4.759 1.468 6.783 1.757 2.023.289 3.758.267 5.515.044a28.403 28.403 0 0 0 5.17-1.178c1.634-.534 3.124-1.179 5.27-2.48 2.146-1.3 4.948-3.257 7.394-5.303 2.446-2.046 4.536-4.18 6.327-6.171a80.657 80.657 0 0 0 4.703-5.737c1.423-1.902 2.78-3.859 4.147-5.838 1.368-1.979 2.746-3.98 4.47-6.693a254.871 254.871 0 0 0 5.37-8.884 115.534 115.534 0 0 0 3.814-7.15 253.364 253.364 0 0 0 3.447-7.382c1.1-2.446 2.101-4.737 1.545-6.371-.556-1.635-2.668-2.613-4.948-3.88-2.28-1.268-4.725-2.825-6.782-4.415-2.057-1.59-3.725-3.213-5.326-4.992a62.259 62.259 0 0 1-4.503-5.649c-1.368-1.934-2.569-3.869-3.603-5.96-1.034-2.09-1.9-4.335-2.735-6.704-.834-2.368-1.634-4.859-2.146-7.25-.511-2.39-.734-4.68-.845-6.87a64.782 64.782 0 0 1-.01-6.405c.1-2.124.3-4.28.644-6.349.345-2.068.834-4.047 1.59-6.37a65.098 65.098 0 0 1 2.947-7.461 47.348 47.348 0 0 1 3.869-6.738c1.39-2.002 2.857-3.736 4.392-5.382 1.534-1.646 3.135-3.202 4.67-4.514a44.275 44.275 0 0 1 4.291-3.236c1.29-.856 2.402-1.5 2.346-2.58-.055-1.078-1.278-2.59-2.646-4.124a54.14 54.14 0 0 0-5.059-4.993c-2.18-1.9-5.025-4.147-8.039-6.104a62.218 62.218 0 0 0-9.25-4.936c-3.058-1.313-5.993-2.269-8.873-2.914a50.738 50.738 0 0 0-8.039-1.111c-2.335-.134-4.18-.067-6.538.177a70.236 70.236 0 0 0-8.205 1.346c-2.98.678-6.071 1.612-9.051 2.657-2.98 1.045-5.849 2.202-8.517 3.147-2.669.945-5.137 1.679-7.516 2.068-2.38.389-4.67.434-6.838.333a35.092 35.092 0 0 1-6.683-.922c-2.468-.579-5.359-1.49-8.205-2.458-2.847-.967-5.649-1.99-8.084-2.835-2.435-.845-4.503-1.512-6.838-2.068s-4.936-1-7.694-1.223a66.25 66.25 0 0 0-7.64-.138c-1.97.084-2.996.252-3.51.336-.513.085-.513.085-1.975.446z" transform="translate(-6.276 -18.513)"/>
<path style="fill:#000;stroke-width:.264583" d="M146.523 18.78c-1.179-.523-3.336-.212-5.638.378-2.301.589-4.747 1.456-7.282 2.557a65.764 65.764 0 0 0-7.528 3.858 50.68 50.68 0 0 0-6.437 4.57 50.26 50.26 0 0 0-5.57 5.448 67.23 67.23 0 0 0-5.071 6.538 48.196 48.196 0 0 0-3.413 5.915 53.12 53.12 0 0 0-2.491 5.904 55.271 55.271 0 0 0-1.857 6.582 51.52 51.52 0 0 0-.945 6.194 32.461 32.461 0 0 0-.078 4.725c.078 1.534.234 3.202 1.201 3.97.967.767 2.746.633 4.714.355 1.968-.278 4.125-.7 6.427-1.412a44.642 44.642 0 0 0 6.883-2.802c2.134-1.09 3.958-2.268 5.904-3.669 1.945-1.401 4.013-3.024 5.87-4.737a42.02 42.02 0 0 0 4.993-5.47c1.49-1.957 2.824-4.07 3.98-5.993 1.156-1.924 2.135-3.658 3.058-5.67a63.674 63.674 0 0 0 2.357-6.005c.567-1.7.834-2.813 1.19-4.403.355-1.59.8-3.658 1.056-5.57.256-1.913.322-3.67.333-4.981a25.324 25.324 0 0 0-.155-3.292c-.123-1.111-.323-2.468-1.501-2.99z" transform="translate(-6.276 -18.513)"/>
</svg>